<?xml version="1.0" encoding="UTF-8"?>
<!DOCTYPE svg PUBLIC "-//W3C//DTD SVG 1.1//EN" "http://www.w3.org/Graphics/SVG/1.1/DTD/svg11.dtd">
<!-- Creator: CorelDRAW -->
<svg xmlns="http://www.w3.org/2000/svg" xml:space="preserve" width="210mm" height="297mm" style="shape-rendering:geometricPrecision; text-rendering:geometricPrecision; image-rendering:optimizeQuality; fill-rule:evenodd; clip-rule:evenodd"
viewBox="0 0 210 297"
 xmlns:xlink="http://www.w3.org/1999/xlink">
 <defs>
  <style type="text/css">
   <![CDATA[
    .fil4 {fill:none}
    .fil1 {fill:black}
    .fil2 {fill:white}
    .fil0 {fill:black}
    .fil3 {fill:#373435;fill-rule:nonzero}
   ]]>
  </style>
 </defs>
 <g id="Camada_x0020_1">
  <metadata id="CorelCorpID_0Corel-Layer"/>
  <path class="fil0" d="M55.111 193.941c-32.62,-0.61 -43.5145,24.9564 -31.1229,47.5251 2.4985,4.5505 6.854,8.7658 10.605,11.6177 13.4642,10.2369 33.796,13.9304 51.211,14.5771 28.986,1.0764 51.1975,-4.617 69.5494,-18.4947 3.0407,-2.2994 3.6227,-3.1506 5.9015,-5.3839 5.8718,-5.7547 9.8267,-11.2825 13.322,-19.4921 6.6444,-15.6066 7.3874,-38.9764 -1.5984,-54.5612 -4.1369,-7.1749 -9.1471,-12.5316 -15.5034,-17.657 -15.0652,-12.1476 -32.8113,-18.5702 -50.5924,-26.3082 -12.809,-5.5742 -31.6549,-15.3854 -37.466,-28.8541 -2.2988,-5.3283 -3.0591,-12.4981 -2.1735,-18.7851 1.6836,-11.9524 10.0206,-20.2335 21.1359,-22.9353 28.0726,-6.8238 42.9505,16.842 43.2363,42.6811l19.6123 -2.7447c3.3292,-0.8068 9.9263,-4.4088 12.5616,-7.213 0.5019,-0.534 0.787,-0.7365 1.2398,-1.2142 8.3089,-8.7667 6.6273,-23.9856 -0.663,-32.8827 -12.6712,-15.4638 -42.531,-20.6456 -69.3758,-18.8672 -15.3211,1.0149 -30.6709,5.5498 -42.3736,13.4144 -6.0012,4.0329 -12.9362,10.3275 -16.7981,16.3602 -2.9445,4.5998 -5.5118,8.8362 -7.4241,14.8061 -5.6218,17.5499 -3.0469,39.5851 6.6059,53.9104 15.715,23.3218 44.0176,30.3893 68.4877,42.6286 13.8249,6.9149 31.0319,14.7986 33.7632,32.9207 1.9178,12.7248 -2.5231,24.1414 -11.9507,31.6497 -18.2807,14.5589 -69.3898,16.6145 -70.1897,-46.6977z"/>
  <path class="fil1" d="M67.6654 103.198c10.6801,-0.7831 22.3736,-0.3351 33.1689,-0.3351 3.3411,0 12.722,-1.4221 12.6047,3.2407 -0.0594,2.3528 -13.2613,62.8465 -14.3878,68.0283 -4.0639,18.6933 -8.9394,38.2021 -8.7072,57.3762 0.1564,12.9166 2.4214,17.6234 16.1874,17.0317 5.0756,-0.2181 8.7663,-1.1817 13.4025,-3.1546 11.5472,-4.914 -3.4145,9.6206 -21.5882,14.1482 -9.5605,2.3818 -17.1079,0.8088 -23.6236,-6.8669 -6.7546,-7.9575 -7.0558,-15.9381 -5.9827,-25.7886 2.4845,-22.8068 11.231,-59.9072 16.0706,-82.9232 1.5694,-7.463 4.9635,-21.7133 0.9694,-28.535 -2.2176,-3.7877 -6.4668,-5.2388 -10.5867,-5.9369 -5.5149,-0.9345 -9.2938,0.6924 -7.5273,-6.2848zm-6.7692 -6.7004c-0.8847,3.5094 -3.1822,12.319 -2.4733,15.5509 1.0689,4.8738 9.2422,3.5286 13.794,5.0702 4.8915,1.6567 8.0367,4.8272 7.7253,10.1855 -0.2455,4.2222 -2.1596,11.0842 -3.0802,15.4836 -5.8173,27.8009 -16.2842,68.4521 -15.6078,96.4083 0.2467,10.197 3.3762,19.5021 12.5244,25.1249 7.8875,4.8479 23.689,4.005 32.3968,1.6225 9.0881,-2.4865 17.2667,-7.4391 24.666,-13.1068 4.4095,-3.3777 4.5536,-8.1235 1.9518,-12.7585 -2.9844,-5.3167 -5.8386,-6.9278 -12.0218,-4.9146 -7.5159,2.4473 -19.8124,12.6103 -22.8613,-2.0597 -2.2846,-10.9924 7.4578,-49.9399 10.2059,-63.0649 4.3064,-20.5668 8.7077,-41.1582 13.1444,-61.6983 0.981,-4.5409 3.1216,-11.7663 -3.8565,-12.1634 -5.9206,-0.337 -12.9013,-0.0146 -18.9389,-0.0146 -12.3016,0 -25.3651,-0.4444 -37.5688,0.3349z"/>
  <path class="fil2" d="M67.6654 103.198c-1.7665,6.9772 2.0124,5.3503 7.5273,6.2848 4.1199,0.6981 8.3691,2.1492 10.5867,5.9369 3.9941,6.8217 0.6,21.072 -0.9694,28.535 -4.8396,23.016 -13.5861,60.1164 -16.0706,82.9232 -1.0731,9.8505 -0.7719,17.8311 5.9827,25.7886 6.5157,7.6757 14.0631,9.2487 23.6236,6.8669 18.1737,-4.5276 33.1354,-19.0622 21.5882,-14.1482 -4.6362,1.9729 -8.3269,2.9365 -13.4025,3.1546 -13.766,0.5917 -16.031,-4.1151 -16.1874,-17.0317 -0.2322,-19.1741 4.6433,-38.6829 8.7072,-57.3762 1.1265,-5.1818 14.3284,-65.6755 14.3878,-68.0283 0.1173,-4.6628 -9.2636,-3.2407 -12.6047,-3.2407 -10.7953,0 -22.4888,-0.448 -33.1689,0.3351z"/>
  <path class="fil1" d="M125.88 50.2649c-1.3311,7.9052 -5.5348,14.436 -14.124,15.8414 -6.2707,1.0261 -15.7626,-6.396 -14.0044,-14.8682 3.2526,-15.6721 16.6557,-19.8409 24.4956,-11.7832 2.6503,2.7239 4.2542,7.1194 3.6328,10.81zm-20.3075 -21.4413c-5.9769,0.9944 -9.6609,3.8029 -12.4124,9.1549 -3.2682,6.3569 -2.4684,12.4078 -2.4813,19.3232 -0.0113,6.0094 1.911,11.1601 7.5565,13.9614 4.2261,2.0972 15.3878,2.3685 20.0062,1.5924 5.2543,-0.8829 10.1406,-4.304 12.4911,-9.077 2.9842,-6.0597 2.2566,-12.9619 2.2582,-19.5471 0.0013,-5.9235 -1.9999,-11.2018 -7.5581,-13.96 -4.5577,-2.2617 -14.9023,-2.2726 -19.8602,-1.4478z"/>
  <path class="fil2" d="M125.88 50.2649c0.6214,-3.6906 -0.9825,-8.0861 -3.6328,-10.81 -7.8399,-8.0577 -21.243,-3.8889 -24.4956,11.7832 -1.7582,8.4722 7.7337,15.8943 14.0044,14.8682 8.5892,-1.4054 12.7929,-7.9362 14.124,-15.8414z"/>
  <path class="fil3" d="M29.442 50.3748m0.7511 -1.4456l0.3613 -2.3715c1.9294,-0.1721 3.5455,-0.8073 4.8506,-1.9024 0.9084,-0.7624 1.4614,-1.6042 1.6681,-2.5283 0.2067,-0.9241 0.0173,-1.7348 -0.5653,-2.4293 -0.5753,-0.6856 -1.7494,-0.9832 -3.5295,-0.9017l-2.296 0.107c-1.6994,0.0884 -2.8086,0.0746 -3.3229,-0.0358 -0.5143,-0.1104 -0.9997,-0.434 -1.4477,-0.9679 -0.8961,-1.0679 -1.1426,-2.4221 -0.7439,-4.0742 0.3988,-1.6522 1.3231,-3.0841 2.7739,-4.3016 0.9188,-0.7708 2.1985,-1.4419 3.8324,-2.0075l1.3011 2.5626 -0.6238 0.5234c-0.1357,-0.1894 -0.2318,-0.3176 -0.288,-0.3847 -0.4529,-0.5398 -1.0744,-0.764 -1.8529,-0.6727 -0.7817,0.0941 -1.5858,0.4853 -2.4129,1.1794 -0.8542,0.7168 -1.3893,1.5387 -1.6075,2.4626 -0.2159,0.927 -0.0546,1.7114 0.4841,2.3532 0.3647,0.4348 0.8435,0.7093 1.4395,0.8206 0.5961,0.1114 1.6489,0.1131 3.1563,0.0164l1.905 -0.1118c2.1131,-0.1323 3.518,0.2202 4.2207,1.0576 0.9229,1.0999 1.1001,2.5572 0.5372,4.3718 -0.5651,1.8117 -1.6958,3.4316 -3.3907,4.8538 -1.2985,1.0895 -2.7822,1.8821 -4.4491,2.381zm11.2105 -8.3809m7.9503 -8.956l0.3519 1.0061c-0.676,2.4838 -1.6549,4.124 -2.9309,4.9213 -1.0545,0.659 -1.8804,0.5149 -2.4757,-0.4379 -0.202,-0.3231 -0.4504,-0.9043 -0.7417,-1.7463l-1.2968 -3.7707c-0.3806,-1.0601 -0.663,-1.7458 -0.8568,-2.0559 -0.331,-0.5297 -0.7367,-0.6445 -1.2133,-0.3466 -0.3302,0.2063 -0.8508,0.6843 -1.5635,1.4395l-0.236 -0.6699 4.4313 -4.8754 1.0601 3.5503 1.8396 5.3492c0.2893,0.8386 0.4974,1.3554 0.6246,1.5588 0.2563,0.4102 0.6011,0.4778 1.0326,0.2081 0.7244,-0.4526 1.3825,-1.8295 1.9746,-4.1306zm-9.835 -6.7619l-0.0678 -1.7452 2.012 -3.678 0.1422 2.3319 -2.0864 3.0913zm10.2883 10.2334m0.6365 -0.7342l0.8662 -2.1005c1.3208,0.144 2.5062,-0.0402 3.5564,-0.5523 0.6442,-0.3143 1.1191,-0.7238 1.4186,-1.2301 0.2996,-0.5063 0.3471,-0.9743 0.1383,-1.4023 -0.232,-0.4758 -0.9852,-0.9094 -2.2665,-1.3057l-1.5511 -0.485c-1.5102,-0.4713 -2.4246,-1.0338 -2.7434,-1.6876 -0.4442,-0.9107 -0.3369,-1.9629 0.3214,-3.157 0.6583,-1.1941 1.6319,-2.1054 2.9205,-2.7339 0.708,-0.3453 1.5614,-0.6047 2.5639,-0.7801l0.5688 2.4685 -0.7358 0.3589 -0.0477 -0.1886c-0.0125,-0.066 -0.0396,-0.1418 -0.078,-0.2205 -0.4407,-0.9037 -1.3374,-1.0258 -2.6896,-0.3662 -1.5155,0.7391 -2.0174,1.628 -1.5081,2.6721 0.2571,0.5272 1.0488,1.0097 2.3791,1.4457l1.4003 0.4484c1.5346,0.5016 2.4597,1.076 2.7753,1.723 0.4375,0.8968 0.2736,1.9641 -0.4858,3.2033 -0.7595,1.239 -1.8444,2.2046 -3.2525,2.8914 -0.9864,0.4811 -2.169,0.8121 -3.5503,0.9985zm10.281 -4.2933m1.239 -12.6803l-2.7531 1.1123 0.5191 -1.1011 2.0927 -0.8455 -0.4991 -3.2078 2.2782 -1.5202 0.6006 3.7665 4.5298 -1.8301 -0.6166 1.309c-1.0726,0.3223 -2.0115,0.6442 -2.8116,0.9675l-0.9725 0.3929 1.2306 7.7472c0.1271,0.799 0.2491,1.3494 0.369,1.6461 0.2197,0.5437 0.6086,0.703 1.1707,0.4758 0.8657,-0.3497 1.8234,-1.3816 2.8744,-3.092l0.1679 1.0413c-1.02,1.9525 -2.2454,3.2198 -3.6773,3.7984 -1.3623,0.5504 -2.306,0.1758 -2.8295,-1.1202 -0.187,-0.4626 -0.3476,-1.1083 -0.4807,-1.9459l-1.1926 -7.5942zm9.7933 8.1099m12.8099 -6.3342l0.0194 0.8824c-2.2693,2.2576 -4.3418,3.6221 -6.2225,4.0911 -1.1895,0.2965 -2.2448,0.1789 -3.1664,-0.3528 -0.9226,-0.5354 -1.5232,-1.3709 -1.8079,-2.5129 -0.5077,-2.0362 -0.0789,-4.1765 1.2862,-6.4205 1.3651,-2.2442 3.0734,-3.6239 5.1259,-4.1357 0.7472,-0.1863 1.4027,-0.1181 1.9742,0.1986 0.5672,0.3178 0.9392,0.8218 1.1124,1.5166 0.3455,1.3858 -0.1779,2.7803 -1.5737,4.1881 -1.3967,1.4041 -3.2346,2.3923 -5.5147,2.9607l0.1089 0.4911c0.5252,2.1064 1.6851,2.9359 3.4801,2.4884 1.55,-0.3865 3.2786,-1.5201 5.1781,-3.3951zm-8.909 -0.2634c1.8442,-0.5972 3.2086,-1.381 4.0898,-2.3464 0.8803,-0.9693 1.1818,-2.01 0.9027,-3.1297 -0.2756,-1.105 -0.8766,-1.54 -1.8084,-1.3077 -1.0048,0.2505 -1.8357,1.07 -2.4895,2.4537 -0.6485,1.3864 -0.8816,2.8302 -0.6946,4.3301zm10.2114 2.4842m3.4894 -0.0494l0.7746 -3.4807 0.9841 -5.5741c0.1542,-0.8625 0.2222,-1.4267 0.2086,-1.6854 -0.024,-0.4601 -0.2926,-0.6787 -0.8008,-0.6521 -0.844,0.0443 -2.0874,0.9256 -3.73,2.644l0.1807 -1.0354c1.791,-1.8445 3.4378,-2.808 4.9492,-2.8872 1.2417,-0.065 1.8942,0.4614 1.953,1.5835 0.02,0.3803 -0.0444,1.013 -0.1973,1.902l-0.4923 2.7833 0.1813 -0.0095c1.0037,-1.9864 2.1296,-3.5862 3.378,-4.7958 1.2483,-1.2096 2.4248,-1.8433 3.5296,-1.9012 0.5789,-0.0303 1.0754,0.142 1.4893,0.5132 0.4141,0.3749 0.6343,0.8553 0.6649,1.441 0.0226,0.4298 -0.0255,0.9511 -0.1398,1.5597l-0.4769 2.7405 0.1813 -0.0095c0.8573,-1.9062 1.9091,-3.4831 3.1509,-4.7305 1.2421,-1.2435 2.4044,-1.8956 3.4915,-1.9526 1.5291,-0.0801 2.3303,0.5796 2.4035,1.9755 0.0217,0.4146 -0.0221,0.9318 -0.1272,1.5475l-0.9745 5.5051c-0.1539,0.8661 -0.2221,1.4265 -0.2086,1.6852 0.0246,0.4677 0.2932,0.6902 0.8014,0.6635 0.853,-0.0447 2.0962,-0.9298 3.7295,-2.6554l-0.1798 1.0506c-1.791,1.8444 -3.438,2.8041 -4.9493,2.8834 -1.2508,0.0655 -1.9075,-0.4606 -1.9663,-1.5827 -0.0192,-0.3651 0.0494,-1.0019 0.2101,-1.9103l0.9743 -5.5051c0.0937,-0.4968 0.1369,-0.8538 0.1252,-1.0782 -0.0323,-0.6161 -0.318,-0.9101 -0.8527,-0.8821 -1.4982,0.0785 -3.5599,2.4254 -6.1718,7.0398l-0.7609 4.0826 -2.5297 0.2661 1.5693 -8.9534c0.0847,-0.4966 0.1236,-0.8533 0.1117,-1.0777 -0.033,-0.6313 -0.3103,-0.9333 -0.8274,-0.9062 -0.6452,0.0338 -1.5699,0.7383 -2.7652,2.1128 -1.1954,1.3709 -2.3442,3.0444 -3.4416,5.0165l-0.7391 3.9938 -2.7108 0.2755zm23.6998 -0.8647m13.3217 -4.6928l-0.2333 -0.0245c-1.1677,1.7537 -2.4932,3.1463 -3.9853,4.1767 -1.4875,1.027 -2.8298,1.4795 -4.0269,1.3537 -1.8133,-0.1906 -2.6172,-1.2631 -2.4122,-3.2139 0.2265,-2.1552 1.447,-4.1563 3.6576,-6.0111 2.2847,-1.9236 4.9188,-2.7268 7.8939,-2.4141 1.2278,0.1291 2.5081,0.3096 3.8414,0.5378l-1.2738 3.1865 -1.8308 5.353c-0.288,0.8351 -0.4434,1.3818 -0.4696,1.6318 -0.0489,0.4658 0.1816,0.7276 0.6877,0.7808 0.8582,0.0902 2.2244,-0.5896 4.0985,-2.0356l-0.3415 1.0057c-2.062,1.5412 -3.8432,2.231 -5.3396,2.0737 -1.2455,-0.1309 -1.8119,-0.7534 -1.6945,-1.8708 0.039,-0.3713 0.2063,-0.9894 0.5068,-1.8578l0.9216 -2.6719zm1.4964 -4.3311c-1.0392,-0.5267 -2.0868,-0.8475 -3.143,-0.9585 -1.5669,-0.1647 -2.9063,0.5562 -4.0224,2.1585 -1.3118,1.8956 -2.0518,3.6447 -2.2206,5.2507 -0.1223,1.1628 0.2129,1.784 1.0051,1.8673 0.7393,0.0777 1.8701,-0.4775 3.4014,-1.6684 1.5265,-1.1876 2.906,-2.586 4.1339,-4.1918l0.8456 -2.4578zm2.6663 11.0806m0.9596 -0.1533l2.0136 -1.0523c0.9193,0.9593 1.9458,1.5802 3.0794,1.8629 0.6956,0.1734 1.3226,0.1648 1.8774,-0.0304 0.555,-0.1953 0.8922,-0.5234 1.0073,-0.9853 0.1281,-0.5137 -0.1701,-1.33 -0.8969,-2.4572l-0.8766 -1.3686c-0.8537,-1.3316 -1.1927,-2.3504 -1.0166,-3.0561 0.245,-0.9832 1.0035,-1.7204 2.2754,-2.2119 1.2718,-0.4915 2.6034,-0.5638 3.9946,-0.2169 0.7642,0.1905 1.5847,0.5403 2.4655,1.0504l-1.151 2.2566 -0.7943 -0.198 0.0846 -0.1752c0.0329,-0.0585 0.0609,-0.134 0.082,-0.219 0.2432,-0.9757 -0.3652,-1.6454 -1.825,-2.0094 -1.636,-0.4079 -2.5918,-0.0496 -2.8729,1.0776 -0.1418,0.569 0.1544,1.4476 0.8932,2.6367l0.7846 1.2436c0.8532,1.3707 1.1926,2.4053 1.0184,3.1038 -0.2413,0.9682 -1.0529,1.6805 -2.4312,2.1416 -1.3782,0.4609 -2.83,0.5033 -4.35,0.1243 -1.0649,-0.2655 -2.1836,-0.7721 -3.3615,-1.5172zm19.0385 5.8663m14.1187 0.393l-0.209 -0.1065c-1.7379,1.2175 -3.4784,2.0405 -5.231,2.4684 -1.7488,0.4298 -3.1545,0.3718 -4.2192,-0.1707 -1.6323,-0.8317 -2.0008,-2.1265 -1.1068,-3.881 0.6086,-1.1945 1.6433,-2.2405 3.1054,-3.1411 1.4622,-0.9008 3.0538,-1.4705 4.7685,-1.7167 1.1469,-0.1552 2.1969,-0.1203 3.1445,0.1061 0.9497,0.2317 2.2319,0.7567 3.8406,1.5764 1.1226,-1.0823 2.1058,-1.8422 2.9515,-2.2835 0.8456,-0.4411 1.8698,-0.7356 3.0726,-0.8837 2.0494,-0.2595 3.9959,0.0825 5.8373,1.0207 0.7609,0.3877 1.4204,0.8092 1.9725,1.2659l-2.3004 0.606c-0.7442,-0.8109 -1.4328,-1.3797 -2.0716,-1.7052 -1.2341,-0.6288 -2.3579,-0.7141 -3.3733,-0.2612 -1.0212,0.4543 -2.3137,1.6167 -3.8872,3.4866l-5.8272 6.9524c-0.5761,0.6724 -0.9174,1.1183 -1.0263,1.3321 -0.2196,0.431 -0.0999,0.7613 0.3536,0.9924 0.7688,0.3917 2.2919,0.2487 4.5692,-0.429l-0.6911 0.8105c-2.4734,0.7018 -4.3773,0.7149 -5.7179,0.0318 -1.1157,-0.5685 -1.4217,-1.3526 -0.9115,-2.3538 0.1659,-0.3257 0.5437,-0.8429 1.1388,-1.5528l1.818 -2.1641zm2.9491 -3.5072c-0.7657,-0.8561 -1.6327,-1.533 -2.6026,-2.0273 -1.3958,-0.7111 -2.9008,-0.5161 -4.5169,0.5797 -1.9119,1.2957 -3.2334,2.6613 -3.9666,4.1002 -0.5309,1.0418 -0.4366,1.7439 0.277,2.1075 0.6625,0.3375 1.9227,0.223 3.7791,-0.3401 1.8541,-0.5684 3.6432,-1.3795 5.3649,-2.4387l1.6651 -1.9813zm-1.1897 11.341m13.2787 5.2813l-0.6428 0.6048c-3.1962,-0.1758 -5.5969,-0.8029 -7.204,-1.8868 -1.0162,-0.6855 -1.635,-1.5485 -1.8566,-2.5892 -0.2193,-1.0438 -0.0003,-2.0492 0.6578,-3.0249 1.1735,-1.7398 3.051,-2.8532 5.6321,-3.3404 2.5811,-0.4871 4.7496,-0.1408 6.5033,1.0421 0.6384,0.4305 1.0263,0.9633 1.1733,1.5999 0.1435,0.6343 0.0178,1.2479 -0.3826,1.8414 -0.7987,1.1842 -2.1852,1.7283 -4.1653,1.633 -1.9781,-0.0984 -3.9423,-0.8031 -5.8903,-2.1171l-0.2923 0.4095c-1.2139,1.7997 -1.0541,3.2168 0.4794,4.2513 1.3245,0.8933 3.3235,1.4193 5.988,1.5764zm-5.7655 -6.797c1.6778,0.9709 3.1732,1.4604 4.4803,1.4693 1.3092,0.0056 2.2845,-0.4668 2.9297,-1.4235 0.6369,-0.9441 0.5581,-1.6818 -0.238,-2.2188 -0.8587,-0.5791 -2.0236,-0.6482 -3.4894,-0.2082 -1.4643,0.4457 -2.6931,1.2386 -3.6826,2.3812z"/>
  <polyline class="fil4" points="6.3423,269.168 15.6733,276.112 30.5762,282.131 43.4889,285.416 56.9447,287.696 83.7467,289.713 101.269,289.493 117.544,288.19 130.84,286.221 150.398,281.323 173.006,268.076 "/>
  <path class="fil3" d="M13.5477 275.25m12.5056 1.2556l-0.5956 0.8611c-2.475,0.8823 -4.4552,1.0363 -5.9378,0.4673 -1.2252,-0.4704 -1.6437,-1.2179 -1.2498,-2.2443 0.1336,-0.3479 0.4485,-0.8817 0.9493,-1.5996l2.2474 -3.2091c0.6215,-0.9151 1,-1.5363 1.1282,-1.8703 0.219,-0.5706 0.0495,-0.963 -0.5043,-1.1756 -0.3837,-0.1473 -1.1137,-0.2918 -2.1956,-0.4316l0.3956 -0.5747 6.8749 0.7668 -2.2208 2.892 -3.1884 4.5524c-0.4994,0.7144 -0.7877,1.1787 -0.8718,1.3979 -0.1696,0.4418 -0.0008,0.7581 0.5007,0.9506 0.8415,0.323 2.3975,0.062 4.668,-0.7829zm-0.8489 -11.7987l1.3861 -1.0567 4.3216 -0.4927 -1.8188 1.4534 -3.8889 0.096zm-2.2267 15.4625m3.5396 1.0169l1.7966 -3.0165 2.6062 -4.9118c0.4058,-0.7591 0.6381,-1.2659 0.6994,-1.5118 0.1091,-0.4375 -0.0987,-0.7236 -0.6198,-0.8536 -0.8657,-0.2158 -2.3773,0.2293 -4.5352,1.3351l0.4826 -0.9128c2.3445,-1.1785 4.2876,-1.5774 5.8376,-1.191 1.2734,0.3175 1.7807,1.0049 1.5165,2.0643 -0.0901,0.3617 -0.3395,0.937 -0.7534,1.7288l-1.3045 2.4517 0.1994 0.0498c1.5565,-1.5324 3.1697,-2.6742 4.8388,-3.4219 1.6653,-0.7524 3.103,-0.9778 4.3086,-0.6773 1.4502,0.3616 2.0148,1.1861 1.6947,2.4698 -0.1036,0.4159 -0.3079,0.9066 -0.607,1.4695l-2.5765 4.8502c-0.4085,0.7699 -0.6399,1.2731 -0.6994,1.5117 -0.1108,0.4448 0.0961,0.7346 0.6173,0.8645 0.8837,0.2203 2.4009,-0.2272 4.5468,-1.3437l-0.4999 0.9239c-2.3398,1.1795 -4.2866,1.5738 -5.8319,1.1885 -1.2734,-0.3175 -1.7799,-1.0085 -1.5139,-2.0752 0.0883,-0.3543 0.3422,-0.9287 0.7662,-1.7217l2.5817 -4.8718c0.2043,-0.3754 0.3434,-0.7018 0.412,-0.9767 0.1425,-0.5713 -0.0538,-0.9236 -0.5839,-1.0558 -1.6904,-0.4214 -4.5671,1.1352 -8.6338,4.665l-1.9129 3.5406 -2.8323 -0.5718zm15.8248 4.126m-6.8723 6.1298l2.187 -1.2988c0.8183,0.4164 1.6818,0.6965 2.5815,0.839 1.2916,0.2046 2.3388,0.012 3.1502,-0.5727 0.8074,-0.589 1.5111,-1.6586 2.1078,-3.2167l4.5346 -11.8506 -3.0263 -0.4793 1.0722 -0.6489 2.2835 0.3616 0.0637 -0.1332c0.8421,-2.0024 2.2965,-3.5114 4.3573,-4.5208 2.066,-1.0122 4.319,-1.3233 6.7685,-0.9354 0.7843,0.1243 1.5033,0.3023 2.1483,0.529l-2.1924 1.3319c-0.7738,-0.5489 -1.5984,-0.8947 -2.4796,-1.0343 -1.3516,-0.2141 -2.4075,-0.0567 -3.168,0.4756 -0.756,0.533 -1.4805,1.6144 -2.1736,3.2441l-0.6347 1.4691 5.0514 0.8001 -1.2455 0.7875c-1.127,-0.2879 -2.267,-0.5251 -3.4204,-0.7077l-0.7012 -0.1111 -3.4389 8.964c-1.0411,2.7216 -2.5712,4.7092 -4.5898,5.9592 -2.0186,1.25 -4.3633,1.6635 -7.039,1.2397 -0.7059,-0.1118 -1.4363,-0.2766 -2.1966,-0.4913zm18.0445 -3.8937m6.9047 0.7556c-1.1928,-0.0834 -2.1639,-0.5249 -2.9087,-1.3242 -0.7446,-0.7992 -1.0757,-1.7564 -0.998,-2.868 0.1461,-2.0893 1.2737,-3.9532 3.3828,-5.5915 2.1089,-1.6345 4.3282,-2.3722 6.6672,-2.2087 1.2673,0.0886 2.2856,0.526 3.0502,1.308 0.7693,0.7822 1.1145,1.7366 1.0358,2.8631 -0.1519,2.1712 -1.2812,4.061 -3.3881,5.6659 -2.1069,1.6085 -4.3859,2.3271 -6.8412,2.1554zm1.6224 -0.8393c1.3465,0.0942 2.5783,-0.5146 3.7001,-1.8258 1.1171,-1.3117 1.7418,-2.8819 1.8698,-4.7111 0.1682,-2.4053 -0.6656,-3.6703 -2.506,-3.799 -1.3,-0.0909 -2.5193,0.5411 -3.6629,1.8958 -1.1386,1.3511 -1.7728,2.9207 -1.8977,4.709 -0.1652,2.3607 0.6656,3.6031 2.4967,3.7311zm7.7968 1.2018m3.8441 0.3995l1.2456 -3.2826 1.6956 -5.2349c0.173,-0.5297 0.2754,-0.9896 0.3026,-1.3799 0.0437,-0.6246 -0.2094,-0.956 -0.7545,-0.9942 -0.9645,-0.0674 -2.4011,0.6578 -4.3095,2.1718l0.3145 -0.9494c2.2279,-1.6635 4.1176,-2.4392 5.6645,-2.331 1.3091,0.0915 1.9242,0.736 1.8405,1.9331 -0.0371,0.5316 -0.162,1.1132 -0.3703,1.7486l-0.8359 2.5792 0.177 0.0124c1.2078,-1.7387 2.5929,-3.1325 4.1504,-4.1817 1.562,-1.0452 2.9535,-1.527 4.1835,-1.441 0.6383,0.0447 1.1989,0.196 1.6817,0.4576l-1.9542 1.8322c-0.5161,-0.32 -0.9582,-0.4928 -1.3355,-0.5192 -1.7705,-0.1238 -4.2784,1.7929 -7.5185,5.7468l-1.275 3.9045 -2.9025 -0.0723zm13.0541 0.4949m3.6805 0.1304l1.0088 -3.3615 1.3452 -5.3964c0.2101,-0.8348 0.3129,-1.3827 0.3129,-1.6361 0,-0.4509 -0.2708,-0.6783 -0.808,-0.6783 -0.892,0 -2.2512,0.7976 -4.0774,2.3926l0.2475 -1.0025c1.9896,-1.7106 3.7785,-2.5678 5.3759,-2.5678 1.3125,0 1.971,0.5479 1.971,1.6473 0,0.3727 -0.1027,0.9876 -0.3129,1.8485l-0.6726 2.6945 0.1915 0c1.1676,-1.8895 2.4427,-3.3952 3.8253,-4.5132 1.3825,-1.118 2.6575,-1.6771 3.8252,-1.6771 0.6118,0 1.1256,0.1938 1.5414,0.5777 0.4155,0.3876 0.6211,0.8683 0.6211,1.4423 0,0.4211 -0.0794,0.9279 -0.2335,1.5168l-0.654 2.6535 0.1915 0c1.0089,-1.8187 2.2046,-3.3057 3.5825,-4.461 1.3778,-1.1516 2.6388,-1.7293 3.7878,-1.7293 1.6161,0 2.424,0.6858 2.424,2.0535 0,0.4062 -0.0746,0.9094 -0.2194,1.5056l-1.3312 5.3294c-0.2102,0.8385 -0.3129,1.3826 -0.3129,1.636 0,0.4584 0.2709,0.6895 0.8081,0.6895 0.9013,0 2.2604,-0.8013 4.0774,-2.4038l-0.2476 1.0174c-1.9897,1.7106 -3.7785,2.5641 -5.3759,2.5641 -1.3218,0 -1.985,-0.5479 -1.985,-1.6473 0,-0.3578 0.1074,-0.9764 0.327,-1.8559l1.3311 -5.3294c0.126,-0.4807 0.1915,-0.8273 0.1915,-1.0472 0,-0.6037 -0.2849,-0.9056 -0.8501,-0.9056 -1.5833,0 -3.886,2.1876 -6.8938,6.5629l-1.0275 3.9504 -2.681 0.1304 2.1484 -8.6685c0.1168,-0.4808 0.1776,-0.8273 0.1776,-1.0472 0,-0.6187 -0.2756,-0.928 -0.8221,-0.928 -0.6819,0 -1.6954,0.641 -3.0313,1.923 -1.3357,1.2783 -2.6388,2.8548 -3.9046,4.7256l-0.9995 3.8647 -2.8724 0.1304zm25.016 -1.2484m12.5092 -7.7456l-0.2453 0.0344c-0.768,1.952 -1.7861,3.6005 -3.0638,4.9467 -1.2734,1.3419 -2.539,2.1031 -3.7971,2.2799 -1.9056,0.2678 -2.9922,-0.5505 -3.2594,-2.4511 -0.295,-2.0999 0.4665,-4.2994 2.279,-6.6052 1.8716,-2.3894 4.3755,-3.8025 7.5022,-4.242 1.2903,-0.1813 2.6472,-0.3269 4.0697,-0.4402l-0.5261 3.3369 -0.5672 5.5291c-0.0909,0.8633 -0.1163,1.4201 -0.0821,1.6636 0.0638,0.454 0.3642,0.6451 0.896,0.5704 0.9019,-0.1268 2.1363,-1.1094 3.7038,-2.9442l-0.104 1.0382c-1.7369,1.9716 -3.3942,3.0664 -4.9668,3.2874 -1.3089,0.1839 -2.0419,-0.2663 -2.195,-1.355 -0.0508,-0.3617 -0.0305,-0.9893 0.065,-1.8871l0.2911 -2.7618zm0.4743 -4.4774c-1.1943,-0.2425 -2.3468,-0.2874 -3.4568,-0.1314 -1.6465,0.2314 -2.8434,1.2464 -3.5957,3.0418 -0.8809,2.1223 -1.2115,3.9638 -0.9916,5.5286 0.1592,1.133 0.6548,1.6392 1.4872,1.5222 0.7771,-0.1092 1.8006,-0.9154 3.079,-2.4236 1.2743,-1.5038 2.3465,-3.1712 3.2124,-4.9976l0.2655 -2.54zm5.4701 9.3161m13.5579 -6.4761l0.007 0.8778c-1.5648,1.4848 -3.3378,2.7143 -5.3233,3.6894l-0.4897 0.9902c0.9614,-0.0247 1.5192,0.2626 1.6671,0.8556 0.1243,0.499 -0.1082,1.0525 -0.6998,1.6533 -0.5959,0.6017 -1.2996,1.0038 -2.1109,1.2061 -0.3716,0.0926 -0.8111,0.1638 -1.3131,0.216l0.7391 -1.3788c0.481,0.1143 0.8843,0.129 1.2105,0.0476 0.7796,-0.1943 1.107,-0.5409 0.9818,-1.0435 -0.1353,-0.5425 -0.8263,-0.689 -2.069,-0.4406l0.8447 -1.651c-2.8991,0.477 -4.6232,-0.3759 -5.1679,-2.56 -0.5319,-2.1335 -0.049,-4.3089 1.4489,-6.5259 1.4924,-2.2195 3.4332,-3.6253 5.8124,-4.2185 1.0288,-0.2565 2.0934,-0.3299 3.2024,-0.2262l-0.2093 2.9444 -0.8249 0.2057 0.0011 -0.1693c0.0033,-0.3541 -0.0117,-0.6077 -0.0506,-0.7632 -0.2425,-0.9728 -1.2026,-1.2519 -2.875,-0.8349 -1.5182,0.3785 -2.6764,1.4086 -3.4705,3.0891 -0.795,1.677 -0.9593,3.4502 -0.494,5.3162 0.4913,1.9707 1.7018,2.7136 3.6324,2.2322 1.4411,-0.3593 3.291,-1.531 5.5506,-3.5117zm1.4723 3.1219m8.6968 -11.8677l-0.2145 0.1239c0.0192,2.0975 -0.3073,4.0073 -0.9876,5.7341 -0.6781,1.7213 -1.5663,2.9012 -2.6665,3.5364 -1.6666,0.9622 -2.9807,0.6105 -3.9403,-1.0517 -1.0602,-1.8364 -1.1782,-4.161 -0.3614,-6.9779 0.8403,-2.9165 2.6324,-5.1648 5.3669,-6.7435 1.1285,-0.6515 2.332,-1.2947 3.6084,-1.9327l0.7622 3.291 1.5454 5.339c0.239,0.8345 0.4241,1.3603 0.5471,1.5732 0.2292,0.397 0.5792,0.4617 1.0444,0.1932 0.7887,-0.4554 1.5652,-1.8289 2.3312,-4.1173l0.2925 1.0016c-0.872,2.4787 -1.9984,4.1146 -3.3737,4.9086 -1.1448,0.6609 -1.9931,0.518 -2.5428,-0.4341 -0.1826,-0.3163 -0.3989,-0.9058 -0.6467,-1.774l-0.7646 -2.6698zm-1.2374 -4.329c-1.1983,0.2226 -2.2836,0.6126 -3.2544,1.1731 -1.4399,0.8313 -2.1695,2.2208 -2.1944,4.1673 -0.0217,2.2977 0.3616,4.1291 1.1516,5.4975 0.5721,0.9909 1.2212,1.2745 1.9492,0.8542 0.6796,-0.3924 1.3266,-1.5232 1.9469,-3.4006 0.6183,-1.8716 0.9877,-3.8192 1.1063,-5.837l-0.7052 -2.4545zm-4.8649 -1.6539l-0.7528 0.6111c-0.2567,-0.734 -0.2586,-1.4473 -0.0079,-2.1342 0.2505,-0.6869 0.7035,-1.2195 1.3587,-1.5978 0.3803,-0.2196 0.9679,-0.3694 1.7629,-0.4498l0.5088 -0.0528c0.7355,-0.0803 1.255,-0.2082 1.5624,-0.3856 0.4489,-0.2593 0.6728,-0.8059 0.669,-1.6342l0.6764 -0.6315c0.6168,1.7224 0.2125,2.9929 -1.2113,3.8149 -0.4975,0.2873 -1.1023,0.4729 -1.8102,0.5545l-0.6896 0.0668c-0.6521,0.0754 -1.1218,0.1959 -1.4171,0.3663 -0.4652,0.2686 -0.683,0.7601 -0.6493,1.4723zm13.337 8.4591m6.1467 -3.2346c-1.0354,0.5978 -2.0874,0.7748 -3.1518,0.5286 -1.0643,-0.2461 -1.874,-0.8545 -2.4312,-1.8196 -1.0472,-1.8138 -1.1546,-3.9896 -0.3222,-6.5271 0.8343,-2.5343 2.2616,-4.387 4.2923,-5.5594 1.1002,-0.6352 2.1889,-0.8419 3.2601,-0.6213 1.0753,0.2183 1.8951,0.8165 2.4597,1.7945 1.0882,1.8849 1.2087,4.0832 0.3596,6.5917 -0.8473,2.5118 -2.3348,4.3819 -4.4665,5.6126zm0.8759 -1.6031c1.1689,-0.6749 1.8497,-1.8684 2.0465,-3.5827 0.1926,-1.7121 -0.1675,-3.3633 -1.0844,-4.9512 -1.2056,-2.0882 -2.6042,-2.6707 -4.202,-1.7483 -1.1284,0.6516 -1.7859,1.8575 -1.9764,3.62 -0.1885,1.7568 0.1636,3.4127 1.0599,4.9651 1.1832,2.0495 2.5667,2.6149 4.1564,1.6971z"/>
 </g>
</svg>
